<?xml version="1.0" encoding="utf-8"?>
<!-- Generator: Adobe Illustrator 19.0.1, SVG Export Plug-In . SVG Version: 6.00 Build 0)  -->
<svg version="1.1" id="Layer_1" xmlns:figma="http://www.figma.com/figma/ns"
	 xmlns="http://www.w3.org/2000/svg" xmlns:xlink="http://www.w3.org/1999/xlink" x="0px" y="0px" viewBox="-457 501 109 24"
	 style="enable-background:new -457 501 109 24;" xml:space="preserve">
<title>Logo</title>
<g>
	<path d="M-453.6,502.2l5.8,11.6l5.8-11.6h3.5v17.5h-2.7v-13.1l-5.5,11.3h-1.9l-5.5-11.3v13.1h-2.8v-17.5H-453.6z"/>
	<path d="M-426.1,519.8v-1.6c-0.9,1.2-2.5,1.8-4.4,1.8c-2.9,0-4.7-1.8-4.7-4.1c0-2.4,1.8-4,5-4h4v-0.4c0-1.7-1.1-2.7-3.2-2.7
		c-1.3,0-2.6,0.4-3.9,1.3l-1.2-2c1.9-1.1,3.2-1.7,5.7-1.7c3.4,0,5.4,1.8,5.4,4.7v8.7H-426.1z M-426.1,515.2V514h-3.6
		c-1.9,0-2.8,0.5-2.8,1.8c0,1.2,1,2,2.6,2C-427.9,517.7-426.3,516.5-426.1,515.2z"/>
	<path d="M-406.8,501.2v18.6h-2.9v-2.3c-0.9,1.6-2.5,2.4-4.7,2.4c-3.8,0-6.4-2.8-6.4-6.8s2.6-6.7,6.3-6.7c2.1,0,3.7,0.9,4.7,2.4
		v-7.6H-406.8z M-409.6,513.2c0-2.6-1.7-4.4-4.1-4.4s-4.1,1.8-4.1,4.4c0,2.5,1.7,4.3,4.1,4.3S-409.6,515.8-409.6,513.2z"/>
	<path d="M-390.7,514.2h-10.1c0.4,2.1,2,3.3,4.1,3.3c1.4,0,2.8-0.5,3.7-1.6l1.5,1.6c-1.3,1.4-3.2,2.2-5.5,2.2
		c-4.1,0-6.8-2.7-6.8-6.7s2.8-6.8,6.7-6.8C-392.2,506.4-390.3,509.5-390.7,514.2z M-393.2,512.2c-0.1-2.1-1.5-3.5-3.7-3.5
		c-2.1,0-3.6,1.3-3.9,3.5H-393.2z"/>
	<path d="M-373.7,517.2c2.9,0,4.6-1.7,4.6-4.7v-10.3h2.9v10.3c0,4.6-2.9,7.4-7.6,7.4s-7.6-2.8-7.6-7.4v-10.3h2.9v10.3
		C-378.4,515.5-376.6,517.2-373.7,517.2z"/>
	<path d="M-348.1,513.2c0,4-2.5,6.7-6.3,6.7c-2.1,0-3.7-0.8-4.7-2.4v7.2h-2.9v-18.2h2.9v2.3c1-1.5,2.6-2.4,4.6-2.4
		C-350.7,506.4-348.1,509.1-348.1,513.2z M-351,513.2c0-2.5-1.7-4.3-4-4.3c-2.4,0-4.1,1.8-4.1,4.3c0,2.6,1.7,4.4,4.1,4.4
		C-352.7,517.5-351,515.7-351,513.2z"/>
</g>
</svg>
